<svg width="81" height="33" viewBox="0 0 81 33" fill="none" xmlns="http://www.w3.org/2000/svg">
<path d="M66.067 10.7517C47.0642 -1.9741 36.41 -3.21575 17.4072 10.7517L9.15979 15.1371L0.5 17.1305L9.15979 19.7219L17.4072 24.506C36.118 36.0842 46.803 34.8582 66.067 24.506L72.2526 19.7219L80.5 17.1305L72.2526 15.1371L66.067 10.7517Z" fill="black"/>
<ellipse cx="41.1588" cy="16.7365" rx="15.9014" ry="15.3732" fill="white"/>
<path d="M54.067 22.3213C54.067 25.0827 51.6405 27.3213 48.9459 27.3213C46.2514 27.3213 44.067 25.0827 44.067 22.3213C44.067 19.5599 46.2514 17.3213 48.9459 17.3213C51.6405 17.3213 54.067 19.5599 54.067 22.3213Z" fill="black"/>
</svg>
